<svg width="76" height="91" viewBox="0 0 76 91" fill="none" xmlns="http://www.w3.org/2000/svg">
<path d="M38.0001 90.9999C57.6371 90.9999 73.5559 89.7275 73.5559 88.1577C73.5559 86.588 57.6371 85.3156 38.0001 85.3156C18.3632 85.3156 2.44434 86.588 2.44434 88.1577C2.44434 89.7275 18.3632 90.9999 38.0001 90.9999Z" fill="#28265D"/>
<path d="M60.9039 20.0884C54.3252 13.4312 45.5758 9.76416 36.2726 9.76416C26.9695 9.76416 18.2201 13.4312 11.6414 20.0884C5.06716 26.7456 1.44336 35.595 1.44336 45.0092C1.44336 54.4235 5.06716 63.2773 11.6458 69.9345C18.2245 76.5917 26.9739 80.2588 36.2771 80.2588C45.5802 80.2588 54.3296 76.5917 60.9083 69.9345C67.4869 63.2773 71.1107 54.4235 71.1107 45.0092C71.1107 35.595 67.4869 26.7411 60.9083 20.0839L60.9039 20.0884ZM58.6711 32.0848C58.6401 32.1879 58.5559 32.3762 58.33 32.4838L57.187 33.0218C52.2342 35.3574 46.4264 35.4112 41.2565 33.1742C39.6749 32.4928 38.0004 32.1431 36.2726 32.1431C34.5449 32.1431 32.8659 32.4883 31.2888 33.1742C26.1189 35.4112 20.3155 35.3529 15.3582 33.0218L14.2153 32.4838C13.9893 32.3762 13.9052 32.1879 13.8697 32.0848C13.8387 31.9817 13.8033 31.7755 13.9317 31.5559C15.0304 29.6954 16.3639 27.9695 17.8922 26.4184C22.8495 21.4019 29.3528 18.7122 36.2505 18.7122C37.8453 18.7122 39.4623 18.8556 41.0881 19.147C44.5081 19.7657 47.6889 21.0612 50.5508 23.0113C53.891 25.2842 56.6022 28.1578 58.6046 31.5469C58.7331 31.7666 58.7021 31.9773 58.6711 32.0804V32.0848ZM15.5576 45.583C19.806 46.7397 23.545 49.268 26.0834 52.702C26.1455 52.7827 26.2031 52.8634 26.2651 52.9441C29.4414 57.0415 30.9521 62.0624 30.5224 67.0834L30.2876 69.8314C30.2654 70.0959 30.106 70.2483 30.0129 70.3111C29.9243 70.3738 29.7338 70.4725 29.4857 70.4052C25.131 69.2217 21.1218 66.8726 17.8967 63.6046C12.9881 58.6374 10.2858 52.034 10.2858 45.0092V44.9823C10.2858 44.7134 10.4408 44.5564 10.5339 44.4847C10.6092 44.4264 10.7421 44.3458 10.9237 44.3458C10.9769 44.3458 11.0345 44.3547 11.0965 44.3682L15.5576 45.5786V45.583ZM32.4096 44.8075C32.5071 42.8305 34.1152 41.2032 36.0688 41.1046C36.1397 41.1046 36.2062 41.1001 36.2726 41.1001C37.3093 41.1001 38.2706 41.5036 39.006 42.2477C39.7901 43.0412 40.1888 44.0992 40.1357 45.2244C40.0382 47.2014 38.4301 48.8287 36.4764 48.9273C35.3645 48.9856 34.319 48.5777 33.5348 47.7842C32.7507 46.9907 32.352 45.9327 32.4052 44.8075H32.4096ZM43.0595 70.4097C42.8114 70.477 42.6254 70.3783 42.5323 70.3156C42.4393 70.2483 42.2798 70.1004 42.2577 69.8359L42.0229 67.0878C41.5931 62.0669 43.1038 57.046 46.2802 52.9486C46.3422 52.8679 46.4042 52.7872 46.4618 52.7065C49.0002 49.268 52.7392 46.7397 56.9877 45.5875L61.4488 44.3771C61.5108 44.3592 61.5684 44.3547 61.6215 44.3547C61.8032 44.3547 61.9405 44.4354 62.0114 44.4937C62.1044 44.5654 62.2595 44.7223 62.2595 44.9913V45.0227C62.2595 52.0475 59.5571 58.6509 54.6486 63.618C51.4191 66.8861 47.4143 69.2352 43.0595 70.4187V70.4097Z" fill="#9873E6" stroke="#28265D" stroke-width="2" stroke-miterlimit="10"/>
<path d="M61.7977 27.2701C68.8441 27.2701 74.5563 21.4897 74.5563 14.3592C74.5563 7.22867 68.8441 1.44824 61.7977 1.44824C54.7513 1.44824 49.0391 7.22867 49.0391 14.3592C49.0391 21.4897 54.7513 27.2701 61.7977 27.2701Z" fill="#22CFAE" stroke="#28265D" stroke-width="2" stroke-miterlimit="10"/>
<path d="M60.4213 21.384C60.0536 21.384 59.6948 21.2585 59.4068 21.0209L55.8229 18.08C55.1318 17.5152 55.0299 16.4886 55.5881 15.7893C56.1463 15.0899 57.1608 14.9868 57.8519 15.5517L60.1289 17.4211L67.0132 7.99786C67.5404 7.2761 68.5505 7.12368 69.2637 7.65716C69.977 8.19063 70.1276 9.21275 69.6004 9.9345L61.7149 20.7295C61.4535 21.0881 61.0592 21.3212 60.6251 21.375C60.5586 21.384 60.4878 21.3885 60.4213 21.3885V21.384Z" fill="white"/>
</svg>
