<svg width="85" height="89" viewBox="0 0 85 89" fill="none" xmlns="http://www.w3.org/2000/svg">
<path d="M42.4977 88.9999C62.1878 88.9999 78.1497 87.7367 78.1497 86.1783C78.1497 84.62 62.1878 83.3567 42.4977 83.3567C22.8077 83.3567 6.8457 84.62 6.8457 86.1783C6.8457 87.7367 22.8077 88.9999 42.4977 88.9999Z" fill="#28265D"/>
<path d="M80.6237 39.6483H76.1816C76.1816 21.0362 61.0697 5.89558 42.493 5.89558C23.9163 5.89558 8.80437 21.0362 8.80437 39.6483H4.3623C4.3623 18.584 21.4687 1.44507 42.493 1.44507C63.5173 1.44507 80.6237 18.584 80.6237 39.6483Z" fill="#22CFAE" stroke="#28265D" stroke-width="2" stroke-miterlimit="10"/>
<path d="M67.1158 38.6246C67.1158 24.9972 56.0906 13.9554 42.4935 13.9554C28.8963 13.9554 17.8711 25.0016 17.8711 38.6246C17.8711 50.3072 25.9779 60.085 36.8609 62.6396V71.6207L45.3364 63.1292C57.5965 61.7184 67.1203 51.2908 67.1203 38.6246H67.1158Z" fill="#9873E6" stroke="#28265D" stroke-width="2" stroke-miterlimit="10"/>
<path d="M31.2102 35.8787C31.1346 35.8787 31.0813 35.8653 31.0414 35.8342C31.0014 35.803 30.9703 35.7719 30.9525 35.7363C30.9347 35.7007 30.9214 35.6606 30.917 35.6206C30.917 35.5805 30.9125 35.5494 30.9125 35.5227C30.8948 35.1355 30.9125 34.7349 30.9658 34.321C31.0236 33.9071 31.1258 33.5066 31.2812 33.1105C31.4323 32.7188 31.6321 32.345 31.8809 31.9889C32.1252 31.6374 32.4228 31.3258 32.7693 31.0632C33.1158 30.8007 33.5156 30.5915 33.9731 30.4402C34.4307 30.2889 34.9415 30.2087 35.5145 30.2087C36.1275 30.2087 36.7228 30.2978 37.3091 30.4802C37.8955 30.6582 38.4152 30.9386 38.8772 31.308C39.3347 31.6819 39.7078 32.1581 39.9877 32.7322C40.272 33.3108 40.4141 33.9961 40.4141 34.7972C40.4141 35.2111 40.3608 35.5939 40.2542 35.9499C40.1476 36.3059 40.0188 36.6308 39.8677 36.9201C39.7167 37.2094 39.5612 37.4631 39.3924 37.6812C39.2236 37.8992 39.0815 38.0728 38.9527 38.2063L35.71 41.7756H39.9699C40.1431 41.7756 40.2675 41.8112 40.3475 41.8824C40.4274 41.9536 40.4674 42.0827 40.4674 42.2785V44.4993C40.4674 44.6462 40.4319 44.7575 40.3697 44.8287C40.3031 44.9043 40.1876 44.9399 40.0188 44.9399H31.259C31.2013 44.9399 31.1346 44.9355 31.068 44.9266C31.0014 44.9177 30.9392 44.8954 30.8814 44.8687C30.8237 44.8376 30.7793 44.7975 30.7437 44.7486C30.7082 44.6996 30.6904 44.6284 30.6904 44.5438V43.2265C30.6904 43.1419 30.6904 43.0663 30.6993 43.0084C30.7082 42.9506 30.7171 42.8927 30.7393 42.8437C30.7615 42.7948 30.7837 42.7458 30.8193 42.6924C30.8548 42.639 30.8992 42.5812 30.957 42.5055L36.4029 36.0478C36.4607 35.99 36.5273 35.9187 36.5984 35.8386C36.6695 35.7585 36.7316 35.6651 36.7938 35.5583C36.8516 35.4514 36.9049 35.3313 36.9449 35.1978C36.9848 35.0642 37.0026 34.9129 37.0026 34.7394C37.0026 34.548 36.9582 34.3744 36.8738 34.2187C36.7849 34.0673 36.6739 33.9338 36.5362 33.827C36.3985 33.7202 36.243 33.6401 36.0742 33.5822C35.9054 33.5244 35.7366 33.4977 35.5723 33.4977C35.2658 33.4977 35.017 33.5555 34.8171 33.6757C34.6217 33.7959 34.4662 33.9516 34.3463 34.1474C34.2308 34.3388 34.1508 34.5658 34.1064 34.8239C34.062 35.0821 34.0397 35.3402 34.0397 35.6072C34.0397 35.7541 33.9953 35.8386 33.9109 35.8653C33.8265 35.892 33.7288 35.9009 33.6222 35.8965L31.2057 35.8876L31.2102 35.8787Z" fill="white"/>
<path d="M42.7156 42.7859C42.5646 42.7859 42.4402 42.7503 42.3514 42.6746C42.2626 42.6034 42.2004 42.5055 42.1737 42.3898C42.1426 42.2741 42.1426 42.145 42.1737 41.9981C42.2048 41.8557 42.2626 41.7088 42.347 41.562L48.4726 31.0054C48.5703 30.8407 48.6636 30.7383 48.7524 30.7116C48.8368 30.6805 48.9434 30.6671 49.0634 30.6671L51.7775 30.676C51.9285 30.676 52.0395 30.7116 52.1062 30.7828C52.1728 30.854 52.2039 30.9742 52.2039 31.1478V39.5147H53.3899C53.5232 39.5147 53.6254 39.5503 53.7009 39.6215C53.7719 39.6928 53.8119 39.7907 53.8119 39.9153V42.1628C53.8119 42.2206 53.8119 42.2874 53.8075 42.3586C53.803 42.4298 53.7897 42.4966 53.7586 42.5589C53.7275 42.6212 53.6831 42.6746 53.6209 42.7147C53.5587 42.7547 53.4699 42.7725 53.3588 42.7725H52.2128V44.6017C52.2128 44.6773 52.195 44.7485 52.1639 44.8153C52.1284 44.8865 52.0484 44.9221 51.9152 44.9221H49.0811C48.9079 44.9221 48.8057 44.891 48.7746 44.8286C48.7435 44.7663 48.7302 44.6818 48.7302 44.5839V42.7859H42.7245H42.7156ZM48.7702 39.5192V36.2614L46.9223 39.5192H48.7702Z" fill="white"/>
<path d="M19.8207 74.4423H15.4364C9.32853 74.4423 4.3623 69.4667 4.3623 63.3472V50.6899H8.80437V63.3472C8.80437 67.01 11.7806 69.9918 15.4364 69.9918H19.8207V74.4423Z" fill="#22CFAE" stroke="#28265D" stroke-width="2" stroke-miterlimit="10"/>
<path d="M5.23342 33.3241H11.6611V54.2727H5.23342C3.1412 54.2727 1.44434 52.5726 1.44434 50.4764V37.1248C1.44434 35.0286 3.1412 33.3285 5.23342 33.3285V33.3241Z" fill="#22CFAE" stroke="#28265D" stroke-width="2" stroke-miterlimit="10"/>
<path d="M79.7627 54.2682H73.335V33.3196H79.7627C81.8549 33.3196 83.5518 35.0197 83.5518 37.1159V50.4674C83.5518 52.5636 81.8549 54.2637 79.7627 54.2637V54.2682Z" fill="#22CFAE" stroke="#28265D" stroke-width="2" stroke-miterlimit="10"/>
<path d="M21.611 68.2917H18.0351C15.8713 68.2917 14.1172 70.0492 14.1172 72.2171C14.1172 74.385 15.8713 76.1425 18.0351 76.1425H21.611C23.7747 76.1425 25.5289 74.385 25.5289 72.2171C25.5289 70.0492 23.7747 68.2917 21.611 68.2917Z" fill="#9873E6" stroke="#28265D" stroke-width="2" stroke-miterlimit="10"/>
</svg>
