<svg width="121" height="40" viewBox="0 0 121 40" fill="none" xmlns="http://www.w3.org/2000/svg">
<path d="M6.17999 12.1657C9.59311 12.1657 12.36 9.44228 12.36 6.08283C12.36 2.72337 9.59311 0 6.17999 0C2.76688 0 0 2.72337 0 6.08283C0 9.44228 2.76688 12.1657 6.17999 12.1657Z" fill="#22CFAE"/>
<path d="M39.0726 12.2238C42.4857 12.2238 45.2526 9.50038 45.2526 6.14093C45.2526 2.78148 42.4857 0.0581055 39.0726 0.0581055C35.6595 0.0581055 32.8926 2.78148 32.8926 6.14093C32.8926 9.50038 35.6595 12.2238 39.0726 12.2238Z" fill="#FFD002"/>
<path d="M4.72959 17.6239C2.12831 17.6239 0.0236479 19.8894 0.0236479 22.6825C0.0236479 22.6825 0 39.3017 0 39.9612C0 39.9612 23.5139 39.9728 23.9435 40C31.7749 39.5616 38.5382 35.209 42.247 28.8973C44.1743 25.6192 45.2582 21.2317 45.2582 17.5657C34.9753 17.5657 4.72565 17.6239 4.72565 17.6239H4.72959Z" fill="#F53A58"/>
<g clip-path="url(#clip0_104_1006)">
<path d="M5.94765 11.8607C9.23244 11.8607 11.8953 9.20562 11.8953 5.93037C11.8953 2.65512 9.23244 0 5.94765 0C2.66285 0 0 2.65512 0 5.93037C0 9.20562 2.66285 11.8607 5.94765 11.8607Z" fill="#22CFAE"/>
<path d="M37.6117 11.9164C40.8965 11.9164 43.5594 9.26128 43.5594 5.98603C43.5594 2.71078 40.8965 0.0556641 37.6117 0.0556641C34.3269 0.0556641 31.6641 2.71078 31.6641 5.98603C31.6641 9.26128 34.3269 11.9164 37.6117 11.9164Z" fill="#FFD002"/>
<path d="M4.5505 17.1816C2.05014 17.1816 0.0232548 19.3909 0.0232548 22.1149C0.0232548 22.1149 0.00186038 38.32 0 38.9628C0 38.9628 22.6288 38.9758 23.0446 38.9999C30.5801 38.5723 37.0914 34.3281 40.6615 28.1742C42.5154 24.979 43.559 20.6987 43.559 17.126C33.6618 17.126 4.54957 17.1826 4.54957 17.1826L4.5505 17.1816Z" fill="#F53A58"/>
<path d="M62.1744 10.6985L67.1918 16.5305C67.4095 16.8041 67.2207 17.0675 66.9741 17.0675H65.5379C65.3965 17.0675 65.2738 17.011 65.1128 16.8134L61.0312 11.8291L59.8591 13.0348V16.7188C59.8591 16.9358 59.7745 17.0675 59.5568 17.0675H58.4415C58.2238 17.0675 58.1299 16.9358 58.1299 16.7188V2.49205C58.1299 2.27502 58.2341 2.16187 58.4415 2.16187H59.5568C59.7549 2.16187 59.8591 2.27502 59.8591 2.49205V10.8302L64.6496 5.70487C64.8384 5.51659 64.9612 5.51659 65.1128 5.51659H66.417C66.7667 5.51659 66.8895 5.85606 66.6625 6.05361L62.1744 10.6985Z" fill="#28265D"/>
<path d="M75.1246 5.40356C78.4221 5.40356 81.0583 8.05062 81.0583 11.3293C81.0583 14.608 78.4407 17.2931 75.1339 17.2931C71.8271 17.2931 69.2002 14.5987 69.2002 11.3293C69.2002 8.05989 71.8364 5.40356 75.1246 5.40356ZM75.1339 15.5883C77.6194 15.5883 79.2444 13.7037 79.2444 11.3302C79.2444 8.95678 77.5533 7.06192 75.1246 7.06192C72.8949 7.06192 70.9666 8.93637 70.9666 11.3302C70.9666 13.7241 72.9135 15.5883 75.1339 15.5883Z" fill="#28265D"/>
<path d="M84.001 2.52085C84.001 2.30382 84.1145 2.16284 84.3321 2.16284H85.4279C85.6456 2.16284 85.7488 2.30382 85.7488 2.52085V16.7096C85.7488 16.9266 85.6446 17.0676 85.4279 17.0676H84.3321C84.1145 17.0676 84.001 16.9452 84.001 16.7096V2.52085Z" fill="#28265D"/>
<path d="M94.6558 5.40356C97.9534 5.40356 100.59 8.05062 100.59 11.3293C100.59 14.608 97.972 17.2931 94.6651 17.2931C91.3583 17.2931 88.7314 14.5987 88.7314 11.3293C88.7314 8.05989 91.3676 5.40356 94.6558 5.40356ZM94.6651 15.5883C97.1506 15.5883 98.7757 13.7037 98.7757 11.3302C98.7757 8.95678 97.0846 7.06192 94.6558 7.06192C92.4262 7.06192 90.4979 8.93637 90.4979 11.3302C90.4979 13.7241 92.4448 15.5883 94.6651 15.5883Z" fill="#28265D"/>
<path d="M103.494 5.84592C103.494 5.61962 103.598 5.50646 103.815 5.50646H104.93C105.148 5.50646 105.262 5.57231 105.262 5.87375V6.75023C105.951 5.74204 106.698 5.38403 107.87 5.38403C109.24 5.38403 110.365 6.1186 110.818 6.52392C111.072 6.74095 111.035 6.88193 110.95 7.02291L110.44 7.84281C110.336 7.99306 110.175 8.02181 109.958 7.88083C109.344 7.495 108.749 7.08041 107.672 7.08041C106.415 7.08041 105.243 7.74913 105.243 9.83135V16.7189C105.243 16.9545 105.139 17.0676 104.922 17.0676H103.816C103.598 17.0676 103.495 16.9545 103.495 16.7189V5.84592H103.494Z" fill="#28265D"/>
<path d="M112.571 14.2602L113.431 13.8641C113.733 13.7417 113.874 13.9392 113.979 14.1656C114.356 15.1079 115.689 15.5698 116.36 15.5698C117.494 15.5698 118.769 15.0513 118.769 13.8363C118.769 12.5545 117.38 12.3198 116.152 11.9989C113.979 11.4146 112.684 10.3693 112.684 8.61638C112.684 6.69462 114.063 5.38501 116.331 5.38501C118.117 5.38501 119.147 6.13906 120.006 7.34479C120.167 7.5711 120.186 7.75011 119.959 7.91056L119.25 8.44758C118.995 8.63586 118.882 8.52271 118.702 8.3066C118.145 7.67498 117.587 7.04429 116.387 7.04429C115.338 7.04429 114.412 7.52473 114.412 8.64606C114.412 9.48451 115.707 10.1059 116.68 10.3322C118.986 10.86 120.545 11.934 120.545 13.8372C120.545 15.938 118.788 17.229 116.359 17.229C114.828 17.229 113.043 16.4565 112.409 14.8269C112.287 14.4596 112.314 14.3742 112.57 14.262L112.571 14.2602Z" fill="#28265D"/>
<path d="M57.7422 24.2732C57.7422 24.0006 57.9031 23.8679 58.1673 23.8679H60.8034C61.0779 23.8679 61.2099 23.9996 61.2099 24.2732V28.2206C61.928 27.5334 62.8545 27.1188 64.0256 27.1188C67.3892 27.1188 69.6765 29.776 69.6765 33.0445C69.6765 36.5875 67.0971 38.9702 64.0359 38.9702C62.8741 38.9702 61.8908 38.4805 61.1346 37.6606L61.0397 37.9147C60.9355 38.1884 60.7467 38.7717 60.369 38.7717H58.1673C57.9022 38.7717 57.7422 38.6308 57.7422 38.3664V24.2714V24.2732ZM63.6666 35.8808C65.4712 35.8808 66.4441 34.599 66.4441 33.0074C66.4441 31.4158 65.3484 30.1813 63.647 30.1813C61.9457 30.1813 60.9448 31.7924 60.9448 33.0074C60.9448 34.2224 61.9281 35.8808 63.6666 35.8808Z" fill="#28265D"/>
<path d="M72.0527 23.4635C72.0527 23.0397 72.2416 22.7095 72.7997 22.7095H74.8787C75.3698 22.7095 75.5586 23.0016 75.5586 23.4635V25.1784C75.5586 25.6969 75.3224 25.8379 74.8787 25.8379H72.7997C72.356 25.8379 72.0527 25.7062 72.0527 25.1877V23.4635ZM72.062 27.6279C72.062 27.3645 72.2695 27.2319 72.4592 27.2319H75.1521C75.3791 27.2319 75.5493 27.3924 75.5493 27.6279V38.3776C75.5493 38.641 75.4172 38.7736 75.1521 38.7736H72.4592C72.1951 38.7736 72.062 38.6419 72.062 38.3776V27.6279Z" fill="#28265D"/>
<path d="M86.9027 27.2319C87.1204 27.2319 87.2338 27.3729 87.2338 27.5899V29.559C87.2338 29.8224 87.1678 29.879 87.0069 30.0775L82.0936 35.8529H86.9976C87.2152 35.8529 87.3287 36.0412 87.3287 36.1831V38.4444C87.3287 38.6048 87.2152 38.7838 86.9976 38.7838H78.2101C77.9924 38.7838 77.8789 38.6707 77.8789 38.4444V36.6923C77.8789 36.4753 77.917 36.3909 77.9924 36.3065L83.2461 30.1823H78.4928C78.2752 30.1823 78.1617 29.994 78.1617 29.8521V27.5909C78.1617 27.4304 78.2752 27.2329 78.4928 27.2329H86.9027V27.2319Z" fill="#28265D"/>
</g>
<defs>
<clipPath id="clip0_104_1006">
<rect width="120.545" height="39" fill="white"/>
</clipPath>
</defs>
</svg>
