<svg width="59" height="85" viewBox="0 0 59 85" fill="none" xmlns="http://www.w3.org/2000/svg">
<path d="M29.5005 85C42.9843 85 53.915 83.7279 53.915 82.1586C53.915 80.5894 42.9843 79.3173 29.5005 79.3173C16.0167 79.3173 5.08594 80.5894 5.08594 82.1586C5.08594 83.7279 16.0167 85 29.5005 85Z" fill="#28265D"/>
<path d="M29.4993 1.44812C14.0049 1.44812 1.44531 14.0685 1.44531 29.6378C1.44531 36.7727 7.34156 44.9248 13.7284 51.6608C21.2749 59.6202 29.5038 65.6033 29.5038 65.6033C29.5038 65.6033 57.5578 45.2072 57.5578 29.6378C57.5578 14.0685 44.9937 1.44812 29.4993 1.44812ZM29.4993 50.3745C18.4561 50.3745 9.5047 41.3798 9.5047 30.2832C9.5047 19.1866 18.4561 10.1963 29.4993 10.1963C40.5425 10.1963 49.4939 19.1911 49.4939 30.2877C49.4939 41.3843 40.5425 50.379 29.4993 50.379V50.3745Z" fill="#68CFBB" stroke="#28265D" stroke-width="2" stroke-miterlimit="10"/>
<path d="M29.5005 1.83362C14.2425 1.83362 1.83008 14.3061 1.83008 29.6379C1.83008 35.5537 5.92444 42.8723 14.0061 51.3964C20.7498 58.5089 28.1313 64.1065 29.5005 65.1283C32.1498 63.1519 57.1709 44.1003 57.1709 29.6379C57.1754 14.3061 44.7585 1.83362 29.5005 1.83362ZM29.5005 50.76C18.2655 50.76 9.12679 41.5771 9.12679 30.2878C9.12679 18.9984 18.2655 9.811 29.5005 9.811C40.7355 9.811 49.8787 18.9939 49.8787 30.2833C49.8787 41.5726 40.7399 50.7556 29.5005 50.7556V50.76ZM29.5005 10.5818C18.6892 10.5818 9.88947 19.4197 9.88947 30.2878C9.88947 41.1558 18.6848 49.9937 29.5005 49.9937C40.3162 49.9937 49.1115 41.1558 49.1115 30.2878C49.1115 19.4197 40.3162 10.5818 29.5005 10.5818Z" fill="#22CFAE"/>
<path d="M29.5005 50.3791C40.5432 50.3791 49.4951 41.3839 49.4951 30.2878C49.4951 19.1916 40.5432 10.1964 29.5005 10.1964C18.4577 10.1964 9.50586 19.1916 9.50586 30.2878C9.50586 41.3839 18.4577 50.3791 29.5005 50.3791Z" fill="white" stroke="#28265D" stroke-width="2" stroke-miterlimit="10"/>
<path d="M29.5007 50.76C18.2657 50.76 9.12695 41.577 9.12695 30.2877C9.12695 18.9983 18.2657 9.81091 29.5007 9.81091C40.7356 9.81091 49.8788 18.9939 49.8788 30.2832C49.8788 41.5725 40.7401 50.7555 29.5007 50.7555V50.76ZM29.5007 10.5818C18.6894 10.5818 9.88963 19.4196 9.88963 30.2877C9.88963 41.1557 18.6849 49.9936 29.5007 49.9936C40.3164 49.9936 49.1117 41.1557 49.1117 30.2877C49.1117 19.4196 40.3164 10.5818 29.5007 10.5818Z" fill="#262D53"/>
<path d="M22.297 26.1646C23.8784 26.1646 25.1604 24.8764 25.1604 23.2874C25.1604 21.6983 23.8784 20.4102 22.297 20.4102C20.7156 20.4102 19.4336 21.6983 19.4336 23.2874C19.4336 24.8764 20.7156 26.1646 22.297 26.1646Z" fill="#28265D"/>
<path d="M37.5333 26.1915C39.1147 26.1915 40.3967 24.9033 40.3967 23.3142C40.3967 21.7252 39.1147 20.437 37.5333 20.437C35.9519 20.437 34.6699 21.7252 34.6699 23.3142C34.6699 24.9033 35.9519 26.1915 37.5333 26.1915Z" fill="#28265D"/>
<path d="M21.6235 28.746C20.4193 28.746 19.447 29.8172 19.447 31.1393C19.447 31.1393 19.4381 38.9956 19.4336 39.3093C19.4336 39.3093 30.3207 39.3138 30.5214 39.3273C34.1474 39.1211 37.2784 37.0595 39 34.0792C39.892 32.5286 40.396 30.4536 40.396 28.7236C35.6327 28.7236 21.6235 28.7505 21.6235 28.7505V28.746Z" fill="#28265D"/>
</svg>
