<svg width="68" height="78" viewBox="0 0 68 78" fill="none" xmlns="http://www.w3.org/2000/svg">
<path d="M34.0004 78C51.2357 78 65.2078 76.7315 65.2078 75.1668C65.2078 73.602 51.2357 72.3335 34.0004 72.3335C16.765 72.3335 2.79297 73.602 2.79297 75.1668C2.79297 76.7315 16.765 78 34.0004 78Z" fill="#28265D"/>
<path d="M26.8893 3.20872V10.57H21.0537L23.4503 2.69548L23.4504 2.69513C23.675 1.95621 24.3581 1.45142 25.1311 1.45142C26.1035 1.45142 26.8893 2.23742 26.8893 3.20872Z" fill="#C9B5F2" stroke="#28265D" stroke-width="2" stroke-miterlimit="10"/>
<path d="M41.0748 10.57V3.20872C41.0748 2.23742 41.8606 1.45142 42.833 1.45142C43.606 1.45142 44.2891 1.95621 44.5137 2.69513L44.5138 2.69548L46.9103 10.57H41.0748Z" fill="#C9B5F2" stroke="#28265D" stroke-width="2" stroke-miterlimit="10"/>
<path d="M48.984 30.4957H17.7051V36.4438H48.984V30.4957Z" fill="#C9B5F2" stroke="#28265D" stroke-width="2" stroke-miterlimit="10"/>
<path d="M48.984 21.558H17.7051V30.9114H48.984V21.558Z" fill="#C9B5F2" stroke="#28265D" stroke-width="2" stroke-miterlimit="10"/>
<path d="M27.9567 35.9432H5.91797L13.4281 11.2705C14.3803 8.14675 17.2637 6.01062 20.5315 6.01062C24.6308 6.01062 27.9567 9.33547 27.9567 13.4334V35.9432Z" fill="#C9B5F2" stroke="#28265D" stroke-width="2" stroke-miterlimit="10"/>
<path d="M39.9766 35.9432H62.0153L54.5051 11.2705C53.553 8.14675 50.6696 6.01062 47.4018 6.01062C43.3025 6.01062 39.9766 9.33547 39.9766 13.4334V35.9432Z" fill="#C9B5F2" stroke="#28265D" stroke-width="2" stroke-miterlimit="10"/>
<path d="M14.8583 52.2279C22.265 52.2279 28.2693 46.2255 28.2693 38.8212C28.2693 31.4169 22.265 25.4146 14.8583 25.4146C7.45157 25.4146 1.44727 31.4169 1.44727 38.8212C1.44727 46.2255 7.45157 52.2279 14.8583 52.2279Z" fill="#9873E6" stroke="#28265D" stroke-width="2" stroke-miterlimit="10"/>
<path d="M14.8586 47.759C19.7964 47.759 23.7993 43.7574 23.7993 38.8212C23.7993 33.885 19.7964 29.8834 14.8586 29.8834C9.92084 29.8834 5.91797 33.885 5.91797 38.8212C5.91797 43.7574 9.92084 47.759 14.8586 47.759Z" fill="#C9B5F2" stroke="#28265D" stroke-width="2" stroke-miterlimit="10"/>
<path d="M53.1415 52.2279C60.5482 52.2279 66.5525 46.2255 66.5525 38.8212C66.5525 31.4169 60.5482 25.4146 53.1415 25.4146C45.7348 25.4146 39.7305 31.4169 39.7305 38.8212C39.7305 46.2255 45.7348 52.2279 53.1415 52.2279Z" fill="#9873E6" stroke="#28265D" stroke-width="2" stroke-miterlimit="10"/>
<path d="M53.1418 47.759C58.0796 47.759 62.0825 43.7574 62.0825 38.8212C62.0825 33.885 58.0796 29.8834 53.1418 29.8834C48.204 29.8834 44.2012 33.885 44.2012 38.8212C44.2012 43.7574 48.204 47.759 53.1418 47.759Z" fill="#C9B5F2" stroke="#28265D" stroke-width="2" stroke-miterlimit="10"/>
<path d="M18.1394 36.8459L12.8242 42.1595" stroke="white" stroke-width="2" stroke-linecap="round" stroke-linejoin="round"/>
<path d="M15.6405 35.4785L12.708 38.4056" stroke="white" stroke-width="2" stroke-linecap="round" stroke-linejoin="round"/>
<path d="M56.0393 36.8459L50.7285 42.1595" stroke="white" stroke-width="2" stroke-linecap="round" stroke-linejoin="round"/>
<path d="M53.5394 35.4785L50.6113 38.4056" stroke="white" stroke-width="2" stroke-linecap="round" stroke-linejoin="round"/>
</svg>
