<svg width="51" height="74" viewBox="0 0 51 74" fill="none" xmlns="http://www.w3.org/2000/svg">
<path d="M26.8752 74C40.1991 74 51.0003 72.7462 51.0003 71.1995C51.0003 69.6528 40.1991 68.3989 26.8752 68.3989C13.5512 68.3989 2.75 69.6528 2.75 71.1995C2.75 72.7462 13.5512 74 26.8752 74Z" fill="#28265D"/>
<path d="M31.3214 3.45154H23.4766V15.3208H31.3214V3.45154Z" fill="#9873E6" stroke="#28265D" stroke-width="2" stroke-miterlimit="10"/>
<path d="M9.96026 9.02625L6.12598 7.85125C6.8135 5.59402 8.60284 3.76526 11.3001 2.56376C13.1423 1.74215 14.7774 1.49036 14.9581 1.46386C15.055 1.45061 15.152 1.44177 15.2489 1.44177H34.5129C35.6191 1.44177 36.5182 2.3429 36.5182 3.45164C36.5182 4.56037 35.6191 5.4615 34.5129 5.4615H15.4252C14.698 5.60285 10.7403 6.48189 9.96467 9.02625H9.96026Z" fill="#22CFAE" stroke="#28265D" stroke-width="2" stroke-miterlimit="10"/>
<path d="M35.2444 10.7268H19.5547V22.596H35.2444V10.7268Z" fill="#22CFAE" stroke="#28265D" stroke-width="2" stroke-miterlimit="10"/>
<path d="M27.3996 16.7211C36.4079 16.7211 43.7239 24.0538 43.7239 33.0827V65.7617C43.7239 68.1957 41.7495 70.1746 39.3211 70.1746H15.478C13.0496 70.1746 11.0752 68.1957 11.0752 65.7617V33.0827C11.0752 24.0538 18.3912 16.7211 27.3996 16.7211Z" fill="#22CFAE" stroke="#28265D" stroke-width="2" stroke-miterlimit="10"/>
<path d="M6.20946 25.9267C0.735678 25.9267 -0.974327 18.753 6.20946 11.5529C13.0671 18.4261 11.5642 25.9267 6.20946 25.9267Z" fill="#9873E6" stroke="#28265D" stroke-width="2" stroke-miterlimit="10"/>
</svg>
